# xmcd
#
# Track frame offsets:
#	150
#	13986
#	28326
#	42145
#	53480
#	68470
#	84801
#	99990
#	117918
#	134620
#	155216
#	166860
#	184992
#	198995
#	214948
#	230966
#	247745
#	259885
#
# Disc length: 3663 seconds
#
# Revision: 0
# Processed by: cddbd v1.5.2PL0 Copyright (c) Steve Scherf et al.
# Submitted via: audiograbber 1.83.01
#
DISCID=f80e4d12
DTITLE=The Nashville Riders - Die schönsten Trucker Songs
DYEAR=2008
DGENRE=Ballad
TTITLE0=Hey Boss - Ich brauch mehr Geld
TTITLE1=Take it easy - Nimm's leicht
TTITLE2=Die Frau mit dem Gurt
TTITLE3=Großstadtrevier
TTITLE4=Beinhart
TTITLE5=Musst du jetzt gerade gehen, Lucille
TTITLE6=Die Babies krieg immer noch ich
TTITLE7=I bin a bayrisches Cowgirl
TTITLE8=Irgendwie wird's schon geh'n
TTITLE9=Ruf' Teddybär Eins-Vier
TTITLE10=Lass die Mädels wissen ...
TTITLE11=Das muss kesseln
TTITLE12=Happy Birthday
TTITLE13=Mädchen ab 30 (...lieben am besten!)
TTITLE14=Ohne Moos, nichts los
TTITLE15=Desperado
TTITLE16=Ich will 'nen Cowboy als Mann
TTITLE17=Easy Rider
EXTD=
EXTT0=
EXTT1=
EXTT2=
EXTT3=
EXTT4=
EXTT5=
EXTT6=
EXTT7=
EXTT8=
EXTT9=
EXTT10=
EXTT11=
EXTT12=
EXTT13=
EXTT14=
EXTT15=
EXTT16=
EXTT17=
PLAYORDER=
